# xmcd
#
# Track frame offsets:
#	150
#	16825
#	34795
#	47785
#	63223
#	78001
#	94654
#	112114
#	129139
#	143749
#	158052
#	174765
#	188685
#	204200
#	222245
#	238733
#	253046
#	266499
#	277039
#	290782
#	307015
#
# Disc length: 4269 seconds
#
# Revision: 1
# Processed by: cddbd v1.5.2PL0 Copyright (c) Steve Scherf et al.
# Submitted via: audiograbber 1.83.01
#
DISCID=2110ab15
DTITLE=Various Artist - Halland's Country Hits Volume 2
DYEAR=1900
DGENRE=
TTITLE0=Alabama - Can't Keep A Good Man Down
TTITLE1=Alabama - Dixieland Delight
TTITLE2=Alabama - Here We Are
TTITLE3=Alabama - If You're Gonna Play In Texas
TTITLE4=Alabama - Love In The First Degree
TTITLE5=Alabama - Mountain Music
TTITLE6=Alabama - Pass It On Down
TTITLE7=Alabama - Roll On (Eighteen Wheeler)
TTITLE8=Alabama - Song Of The South
TTITLE9=Alabama - Southern Star
TTITLE10=Alabama - Take Me Down
TTITLE11=Alabama - Tennesee River
TTITLE12=Alabama - The Closer You Get
TTITLE13=Alabama - (There's A) Fire In The Night
TTITLE14=Alabama - When We Make Love
TTITLE15=Alabama - Why Lady Why
TTITLE16=John Anderson - 1959
TTITLE17=John Anderson - She Just Started Liking Cheatin'
TTITLE18=John Anderson - Swingin'
TTITLE19=Atlanta - Sweet Country Music
TTITLE20=Baillie and The Boys - Long Shot
EXTD=
EXTT0=
EXTT1=
EXTT2=
EXTT3=
EXTT4=
EXTT5=
EXTT6=
EXTT7=
EXTT8=
EXTT9=
EXTT10=
EXTT11=
EXTT12=
EXTT13=
EXTT14=
EXTT15=
EXTT16=
EXTT17=
EXTT18=
EXTT19=
EXTT20=
PLAYORDER=
